<svg height="511pt" viewBox="-14 0 511 511.99964" width="511pt" xmlns="http://www.w3.org/2000/svg" xmlns:xlink="http://www.w3.org/1999/xlink"><linearGradient id="a" gradientUnits="userSpaceOnUse" x1="104.791900302" x2="130.2590924214" y1="320.5109330136" y2="298.3297783846"><stop offset="0" stop-color="#ffc738"/><stop offset=".4286" stop-color="#ffbb23"/><stop offset="1" stop-color="#ffa700"/></linearGradient><linearGradient id="b"><stop offset="0" stop-color="#00e7b2"/><stop offset=".2459" stop-color="#05e5b1"/><stop offset=".5301" stop-color="#13ddac"/><stop offset=".8322" stop-color="#2ad1a5"/><stop offset="1" stop-color="#3ac9a0"/></linearGradient><linearGradient id="c" gradientTransform="matrix(.709873 .709873 -.709873 .709873 240.061748 -100.058152)" gradientUnits="userSpaceOnUse" x1="135.0249" x2="402.3701" xlink:href="#b" y1="111.5184" y2="378.8635"/><linearGradient id="d" gradientTransform="matrix(.709873 .709873 -.709873 .709873 240.061748 -100.058152)" gradientUnits="userSpaceOnUse" x1="346.2605" x2="153.7923" xlink:href="#b" y1="318.9788" y2="126.5106"/><linearGradient id="e"><stop offset="0" stop-color="#3ac9a0" stop-opacity="0"/><stop offset=".0351" stop-color="#38c69d" stop-opacity=".035294"/><stop offset=".4167" stop-color="#23aa82" stop-opacity=".415686"/><stop offset=".7511" stop-color="#169971" stop-opacity=".752941"/><stop offset="1" stop-color="#11936b"/></linearGradient><linearGradient id="f" gradientUnits="userSpaceOnUse" x1="238.8923877272" x2="166.4254828636" xlink:href="#e" y1="220.4894814082" y2="148.0225765446"/><linearGradient id="g"><stop offset="0" stop-color="#3b395f"/><stop offset=".0633" stop-color="#37355a"/><stop offset=".4033" stop-color="#232543"/><stop offset=".7232" stop-color="#171b35"/><stop offset="1" stop-color="#131830"/></linearGradient><linearGradient id="h" gradientTransform="matrix(.709873 .709873 -.709873 .709873 240.061748 -100.058152)" gradientUnits="userSpaceOnUse" x1="163.0452" x2="163.0452" xlink:href="#g" y1="222.9173" y2="335.4556"/><linearGradient id="i" gradientUnits="userSpaceOnUse" x1="306.9735589416" x2="217.1185242536" xlink:href="#e" y1="287.9597660856" y2="198.1046310054"/><linearGradient id="j" gradientTransform="matrix(.709873 .709873 -.709873 .709873 240.061748 -100.058152)" gradientUnits="userSpaceOnUse" x1="256.547" x2="256.547" xlink:href="#g" y1="222.9173" y2="335.4556"/><linearGradient id="k" gradientUnits="userSpaceOnUse" x1="375.4099177596" x2="289.176732471" xlink:href="#e" y1="357.1287871792" y2="270.8956018906"/><linearGradient id="l" gradientTransform="matrix(.709873 .709873 -.709873 .709873 240.061748 -100.058152)" gradientUnits="userSpaceOnUse" x1="344.7177" x2="344.7177" xlink:href="#g" y1="222.9173" y2="335.4556"/><linearGradient id="m" gradientUnits="userSpaceOnUse" x1="140.755398108" x2="68.6666706618" xlink:href="#e" y1="63.3604287938" y2="34.4016963506"/><linearGradient id="n" gradientUnits="userSpaceOnUse" x1="79.6167490924" x2="115.5379817822" y1="31.6880951846" y2="31.6880951846"><stop offset="0" stop-color="#ff4974"/><stop offset=".3262" stop-color="#fe4672"/><stop offset=".5324" stop-color="#fb3e6c"/><stop offset=".7054" stop-color="#f52f60"/><stop offset=".8591" stop-color="#ee1a51"/><stop offset="1" stop-color="#e4003d"/></linearGradient><path d="m404.511719 362.214844-155.921875-289.070313c-9.085938-16.847656-30.109375-23.136719-46.953125-14.050781l-3.734375 2.015625c-14.785156 7.972656-33.234375 2.453125-41.207032-12.332031-18.160156-33.667969-60.175781-46.238282-93.839843-28.078125-33.667969 18.160156-46.238281 60.171875-28.082031 93.839843 7.976562 14.785157 2.457031 33.234376-12.328126 41.207032l-3.734374 2.015625c-16.847657 9.085937-23.136719 30.105469-14.050782 46.953125l155.925782 289.074218c9.085937 16.84375 30.109374 23.136719 46.953124 14.050782l182.925782-98.667969c16.847656-9.085937 23.136718-30.109375 14.046875-46.957031zm-334.6875-278.65625c-6.214844-11.523438-1.914063-25.902344 9.609375-32.117188 11.523437-6.214844 25.90625-1.914062 32.121094 9.609375 6.214843 11.523438 1.910156 25.902344-9.613282 32.121094-11.523437 6.214844-25.902344 1.910156-32.117187-9.613281zm0 0" fill="url(#a)"/><path d="m474.425781 260.046875-232.242187-232.242187c-13.535156-13.535157-35.480469-13.535157-49.011719 0l-3 3c-11.878906 11.875-31.136719 11.875-43.011719 0-27.050781-27.050782-70.90625-27.050782-97.953125 0-27.050781 27.046874-27.050781 70.902343 0 97.949218 11.878907 11.878906 11.878907 31.136719 0 43.011719l-3 3c-13.535156 13.535156-13.535156 35.480469 0 49.011719l232.246094 232.246094c13.53125 13.535156 35.476563 13.535156 49.011719 0l146.964844-146.964844c13.53125-13.53125 13.53125-35.476563-.003907-49.011719zm-400.523437-171.019531c-9.257813-9.257813-9.257813-24.269532 0-33.527344 9.257812-9.257812 24.269531-9.257812 33.527344 0 9.257812 9.257812 9.257812 24.269531 0 33.527344-9.257813 9.257812-24.269532 9.257812-33.527344 0zm0 0" fill="url(#c)"/><path d="m281.582031 402.671875-183.800781-183.800781c-12.289062-12.285156-12.289062-32.207032 0-44.492188l95-95c12.285156-12.289062 32.207031-12.289062 44.492188 0l183.804687 183.800782c12.285156 12.285156 12.285156 32.207031 0 44.492187l-95 95c-12.289063 12.289063-32.210937 12.289063-44.496094 0zm0 0" fill="url(#d)"/><path d="m418.886719 309.863281-175.640625-175.636719c-3.5-3.503906-7.207032-6.433593-11.109375-8.796874-3.90625-2.363282-8.136719-4.117188-12.691407-5.261719-4.558593-1.144531-9.253906-.964844-14.089843.535156-4.835938 1.496094-9.40625 4.398437-13.710938 8.703125-5.40625 5.40625-8.542969 11.269531-9.417969 17.597656-.875 6.332032-.257812 12.347656 1.851563 18.058594 2.105469 5.710938 4.316406 11.273438 6.628906 16.699219 2.308594 5.421875 3.519531 10.804687 3.628907 16.152343.105468 5.347657-1.804688 9.988282-5.730469 13.914063-1.359375 1.363281-2.765625 2.445313-4.207031 3.3125-.292969-1.109375-.703126-1.976563-1.261719-2.535156l-33.925781-33.925781c-1.464844-1.464844-3.542969-1.992188-6.230469-1.585938s-4.804688 1.386719-6.347657 2.929688c-3.339843 3.339843-3.953124 9.203124-1.832031 17.585937 2.113281 8.386719 6.917969 16.324219 14.410157 23.816406l179.058593 179.058594zm0 0" fill="url(#f)"/><path d="m136.628906 180.023438c1.546875-1.546876 3.664063-2.523438 6.351563-2.933594 2.683593-.40625 4.761719.125 6.230469 1.589844.894531.894531 1.449218 2.496093 1.667968 4.800781.21875 2.304687.335938 4.675781.34375 7.105469.011719 2.429687.734375 5.410156 2.175782 8.9375 1.441406 3.527343 3.707031 6.835937 6.800781 9.929687 4.640625 4.640625 9.472656 7.261719 14.488281 7.859375 5.019531.601562 9.660156-1.230469 13.914062-5.484375 3.929688-3.929687 5.839844-8.566406 5.730469-13.914063-.109375-5.347656-1.320312-10.734374-3.628906-16.15625-2.3125-5.421874-4.519531-10.988281-6.628906-16.695312-2.105469-5.710938-2.722657-11.730469-1.847657-18.058594.871094-6.332031 4.011719-12.195312 9.414063-17.597656 4.304687-4.304688 8.875-7.207031 13.714844-8.707031 4.835937-1.5 9.53125-1.675781 14.085937-.53125 4.554688 1.140625 8.785156 2.894531 12.691406 5.261719 3.90625 2.359374 7.609376 5.292968 11.113282 8.792968 2.199218 2.199219 4.355468 4.640625 6.476562 7.324219 2.117188 2.683594 4.035156 5.527344 5.753906 8.535156 1.714844 3.003907 2.746094 5.882813 3.085938 8.640625.335938 2.753906-.257812 4.894532-1.785156 6.425782-1.53125 1.53125-3.5625 2.582031-6.09375 3.160156-2.53125.582031-4.613282.054687-6.242188-1.574219-.8125-.8125-1.527344-2.300781-2.128906-4.464844-.609375-2.164062-1.683594-4.789062-3.226562-7.886719-1.542969-3.101562-3.820313-6.15625-6.832032-9.167968-4.640625-4.640625-9.269531-7.425782-13.875-8.351563-4.613281-.925781-8.800781.496094-12.566406 4.261719-2.453125 2.453125-3.832031 5.296875-4.125 8.523438-.292969 3.222656.144531 6.570312 1.320312 10.035156 1.171876 3.46875 2.632813 7.175781 4.378907 11.132812 1.742187 3.953125 3.285156 8.070313 4.621093 12.355469 1.335938 4.28125 2.199219 8.546875 2.597657 12.789063.394531 4.242187-.351563 8.777343-2.242188 13.597656-1.890625 4.824218-5.046875 9.445312-9.464843 13.863281-8.414063 8.414063-17.371094 12.28125-26.867188 11.601563-9.496094-.683594-18.4375-5.214844-26.824219-13.601563-7.492187-7.488281-12.292969-15.425781-14.410156-23.8125-2.117187-8.382813-1.503906-14.246094 1.832031-17.585937zm0 0" fill="url(#h)"/><path d="m418.519531 310.230469-133.261719-133.261719c-1.546874-1.546875-3.277343-2.503906-5.191406-2.871094-1.914062-.363281-3.519531.105469-4.824218 1.40625l-80.726563 80.726563c-1.300781 1.300781-1.769531 2.910156-1.402344 4.824219.363281 1.914062 1.324219 3.640624 2.871094 5.1875l133.261719 133.261718zm0 0" fill="url(#i)"/><path d="m194.515625 256.230469 80.726563-80.726563c1.300781-1.300781 2.910156-1.769531 4.824218-1.40625 1.914063.367188 3.644532 1.324219 5.191406 2.871094l43.476563 43.476562c1.382813 1.382813 1.871094 3.015626 1.464844 4.886719-.40625 1.875-1.34375 3.539063-2.808594 5.007813-1.628906 1.628906-3.398437 2.625-5.3125 2.992187-1.914063.363281-3.519531-.105469-4.824219-1.40625l-36.269531-36.273437-27.96875 27.96875 18.808594 18.808594c1.300781 1.300781 1.828125 2.847656 1.585937 4.640624-.246094 1.789063-1.097656 3.417969-2.5625 4.882813-1.304687 1.304687-2.832031 2.097656-4.582031 2.382813-1.75.285156-3.316406-.265626-4.703125-1.648438l-18.804688-18.808594-28.089843 28.089844 36.273437 36.269531c1.300782 1.304688 1.765625 2.910157 1.402344 4.824219-.367188 1.914062-1.363281 3.6875-2.992188 5.3125-1.464843 1.46875-3.132812 2.402344-5.007812 2.8125-1.871094.40625-3.5-.085938-4.882812-1.46875l-43.476563-43.476562c-1.550781-1.546876-2.507813-3.277344-2.871094-5.1875-.367187-1.914063.101563-3.523438 1.402344-4.824219zm0 0" fill="url(#j)"/><path d="m418.472656 310.273438-49.679687-49.769532c-8.304688-8.304687-17.140625-12.742187-26.503907-13.308594-9.363281-.570312-18.726562 3.828126-28.085937 13.1875l-35.539063 35.539063c-9.363281 9.363281-13.761718 18.726563-13.191406 28.089844.570313 9.363281 5.007813 18.195312 13.3125 26.5l49.765625 49.6875zm0 0" fill="url(#k)"/><path d="m278.664062 295.921875 35.539063-35.539063c9.359375-9.363281 18.726563-13.761718 28.089844-13.191406 9.359375.570313 18.195312 5.007813 26.5 13.3125 8.304687 8.304688 12.761719 17.160156 13.375 26.5625.609375 9.402344-3.769531 18.789063-13.128907 28.148438l-35.539062 35.539062c-9.363281 9.363282-18.746094 13.742188-28.152344 13.128906-9.402344-.609374-18.253906-5.066406-26.5625-13.371093-8.304687-8.304688-12.742187-17.140625-13.3125-26.5-.570312-9.363281 3.828125-18.726563 13.191406-28.089844zm12.945313 12.945313c-10.503906 10.503906-10.953125 20.554687-1.34375 30.164062 4.640625 4.640625 9.523437 6.921875 14.65625 6.839844 5.125-.082032 10.335937-2.765625 15.628906-8.058594l35.539063-35.539062c5.292968-5.292969 7.976562-10.503907 8.0625-15.632813.078125-5.128906-2.199219-10.015625-6.839844-14.65625-9.605469-9.609375-19.660156-9.160156-30.164062 1.34375zm0 0" fill="url(#l)"/><path d="m104.976562 10.515625 78.332032 78.332031-21.457032 21.457032-57.050781-57.050782zm0 0" fill="url(#m)"/><path d="m89.121094 63.375c-9.5 0-17.199219-7.699219-17.199219-17.199219v-28.972656c0-9.5 7.699219-17.203125 17.199219-17.203125s17.203125 7.703125 17.203125 17.203125v28.972656c0 9.5-7.699219 17.199219-17.203125 17.199219zm0 0" fill="url(#n)"/></svg>