<svg height="512pt" viewBox="0 0 512 512" width="512pt" xmlns="http://www.w3.org/2000/svg"><path d="m512 88.277344v264.824218c0 19.503907-15.808594 35.3125-35.308594 35.3125h-441.382812c-19.5 0-35.308594-15.808593-35.308594-35.3125v-264.824218zm0 0" fill="#b0d3f0"/><path d="m222.457031 423.722656 42.371094 17.65625 33.984375-17.65625 4.148438-2.382812 45.90625-26.480469 45.8125-26.484375 30.632812-17.65625-44.136719-76.445312-30.632812 17.65625-45.816407 26.480468-32.128906 18.449219-.089844.089844v.089843l-42.992187 24.890626zm0 0" fill="#ff5364"/><path d="m348.867188 394.859375-45.90625 26.480469-39.546876-68.5v-.089844l1.414063-2.472656 7.679687-13.238282v-.089843l.089844-.089844 32.128906-18.449219zm0 0" fill="#df4d60"/><path d="m425.3125 350.71875-30.632812 17.65625-44.136719-76.445312 30.632812-17.65625c8.4375-4.835938 19.199219-1.957032 24.097657 6.445312l26.484374 45.902344c4.867188 8.433594 1.980469 19.21875-6.445312 24.097656zm0 0" fill="#fb7b76"/><path d="m302.960938 421.339844-4.148438 2.382812h-76.355469l10.328125-17.917968 5.558594-9.621094 25.070312-43.34375zm0 0" fill="#802d40"/><path d="m512 35.308594v70.621094h-512v-70.621094c0-19.5 15.808594-35.308594 35.308594-35.308594h441.382812c19.5 0 35.308594 15.808594 35.308594 35.308594zm0 0" fill="#894b9d"/><path d="m70.621094 52.964844c0 9.75-7.90625 17.65625-17.65625 17.65625s-17.65625-7.90625-17.65625-17.65625 7.90625-17.65625 17.65625-17.65625 17.65625 7.90625 17.65625 17.65625zm0 0" fill="#e64c3c"/><path d="m141.242188 52.964844c0 9.75-7.90625 17.65625-17.65625 17.65625s-17.65625-7.90625-17.65625-17.65625 7.90625-17.65625 17.65625-17.65625 17.65625 7.90625 17.65625 17.65625zm0 0" fill="#f0c419"/><path d="m211.863281 52.964844c0 9.75-7.90625 17.65625-17.65625 17.65625s-17.65625-7.90625-17.65625-17.65625 7.90625-17.65625 17.65625-17.65625 17.65625 7.90625 17.65625 17.65625zm0 0" fill="#14a085"/><path d="m370.757812 61.792969h-88.273437c-4.878906 0-8.828125-3.953125-8.828125-8.828125s3.949219-8.828125 8.828125-8.828125h88.273437c4.875 0 8.828126 3.953125 8.828126 8.828125s-3.953126 8.828125-8.828126 8.828125zm0 0" fill="#955ba5"/><path d="m467.863281 61.792969h-61.792969c-4.875 0-8.828124-3.953125-8.828124-8.828125s3.953124-8.828125 8.828124-8.828125h61.792969c4.875 0 8.828125 3.953125 8.828125 8.828125s-3.953125 8.828125-8.828125 8.828125zm0 0" fill="#955ba5"/><path d="m97.101562 194.207031h88.277344v247.171875h-88.277344zm0 0" fill="#d25627"/><path d="m97.101562 264.828125h88.277344v52.964844h-88.277344zm0 0" fill="#e57e25"/><path d="m97.101562 211.863281h88.277344v52.964844h-88.277344zm0 0" fill="#f29c1f"/><path d="m185.378906 176.550781v35.3125h-88.277344v-35.3125c.03125-9.738281 7.917969-17.625 17.65625-17.652343h52.964844c9.738282.027343 17.628906 7.914062 17.65625 17.652343zm0 0" fill="#f0c419"/><path d="m335.449219 227.929688-17.65625 30.628906-76.445313-44.136719 17.652344-30.632813c4.902344-8.402343 15.660156-11.277343 24.101562-6.441406l45.902344 26.480469c8.402344 4.902344 11.28125 15.660156 6.445313 24.101563zm0 0" fill="#7ed09e"/><path d="m214.875 260.210938 26.484375-45.816407 76.429687 44.175781-26.484374 45.820313zm0 0" fill="#71c285"/><path d="m214.863281 260.238281-26.484375 45.902344-3 5.207031v112.375h37.078125l10.328125-17.917968 5.558594-9.621094 25.070312-43.34375v-.089844l1.414063-2.472656 7.679687-13.238282v-.089843l.089844-.089844 18.710938-32.484375zm0 0" fill="#24ae5f"/><path d="m291.308594 304.375-18.710938 32.484375-.089844.089844v.089843l-7.679687 13.238282-76.449219-44.136719 26.484375-45.902344zm0 0" fill="#4fba6f"/><path d="m238.34375 396.183594-5.558594 9.621094-10.328125 17.917968h-37.078125v-58.085937l18.804688 10.859375 17.476562 10.0625zm0 0" fill="#1b8347"/><path d="m123.585938 423.722656h282.484374v88.277344h-282.484374zm0 0" fill="#285680"/><path d="m185.378906 370.757812v52.964844h-70.621094c-9.738281.03125-17.625 7.917969-17.65625 17.65625v-70.621094zm0 0" fill="#c03a2b"/><path d="m238.34375 423.722656v88.277344h-123.585938c-9.738281-.027344-17.625-7.917969-17.65625-17.65625v-52.964844c.03125-9.738281 7.917969-17.625 17.65625-17.65625zm0 0" fill="#35495e"/><path d="m291.308594 423.722656h52.96875v88.277344h-52.96875zm0 0" fill="#2980ba"/><path d="m344.277344 423.722656h52.964844v88.277344h-52.964844zm0 0" fill="#3b97d3"/><path d="m450.207031 441.378906v52.964844c-.027343 9.738281-7.917969 17.628906-17.65625 17.65625h-35.308593v-88.277344h35.308593c9.738281.03125 17.628907 7.917969 17.65625 17.65625zm0 0" fill="#67b9cc"/><path d="m150.070312 459.035156c0-4.875-3.953124-8.828125-8.828124-8.828125s-8.828126 3.953125-8.828126 8.828125c-4.875 0-8.828124 3.953125-8.828124 8.828125s3.953124 8.828125 8.828124 8.828125c0 4.875 3.953126 8.824219 8.828126 8.824219s8.828124-3.949219 8.828124-8.824219c4.875 0 8.828126-3.953125 8.828126-8.828125s-3.953126-8.828125-8.828126-8.828125zm0 0" fill="#e6e7e8"/></svg>